<?xml version="1.0" encoding="UTF-8"?><svg height="5.207mm" viewBox="0 0 58.674 5.207" width="58.674mm" xmlns="http://www.w3.org/2000/svg"><g fill="black" stroke="none"><rect height="3.175" width="0.508" x="3.175" y="1.016"/><rect height="3.175" width="0.508" x="4.191" y="1.016"/><rect height="3.175" width="0.508" x="5.207" y="1.016"/><rect height="1.27" width="0.508" x="6.223" y="2.921"/><rect height="1.27" width="0.508" x="7.239" y="2.921"/><rect height="1.27" width="0.508" x="8.255" y="2.921"/><rect height="1.27" width="0.508" x="9.271" y="2.921"/><rect height="1.27" width="0.508" x="10.287" y="2.921"/><rect height="1.27" width="0.508" x="11.303" y="2.921"/><rect height="3.175" width="0.508" x="12.319" y="1.016"/><rect height="3.175" width="0.508" x="13.335" y="1.016"/><rect height="1.27" width="0.508" x="14.351" y="2.921"/><rect height="1.27" width="0.508" x="15.367" y="2.921"/><rect height="3.175" width="0.508" x="16.383" y="1.016"/><rect height="1.27" width="0.508" x="17.399" y="2.921"/><rect height="3.175" width="0.508" x="18.415" y="1.016"/><rect height="1.27" width="0.508" x="19.431" y="2.921"/><rect height="1.27" width="0.508" x="20.447" y="2.921"/><rect height="3.175" width="0.508" x="21.463" y="1.016"/><rect height="3.175" width="0.508" x="22.479" y="1.016"/><rect height="1.27" width="0.508" x="23.495" y="2.921"/><rect height="1.27" width="0.508" x="24.511" y="2.921"/><rect height="3.175" width="0.508" x="25.527" y="1.016"/><rect height="1.27" width="0.508" x="26.543" y="2.921"/><rect height="1.27" width="0.508" x="27.559" y="2.921"/><rect height="3.175" width="0.508" x="28.575" y="1.016"/><rect height="1.27" width="0.508" x="29.591" y="2.921"/><rect height="3.175" width="0.508" x="30.607" y="1.016"/><rect height="1.27" width="0.508" x="31.623" y="2.921"/><rect height="3.175" width="0.508" x="32.639" y="1.016"/><rect height="1.27" width="0.508" x="33.655" y="2.921"/><rect height="1.27" width="0.508" x="34.671" y="2.921"/><rect height="3.175" width="0.508" x="35.687" y="1.016"/><rect height="3.175" width="0.508" x="36.703" y="1.016"/><rect height="1.27" width="0.508" x="37.719" y="2.921"/><rect height="1.27" width="0.508" x="38.735" y="2.921"/><rect height="3.175" width="0.508" x="39.751" y="1.016"/><rect height="1.27" width="0.508" x="40.767" y="2.921"/><rect height="1.27" width="0.508" x="41.783" y="2.921"/><rect height="1.27" width="0.508" x="42.799" y="2.921"/><rect height="3.175" width="0.508" x="43.815" y="1.016"/><rect height="3.175" width="0.508" x="44.831" y="1.016"/><rect height="1.27" width="0.508" x="45.847" y="2.921"/><rect height="1.27" width="0.508" x="46.863" y="2.921"/><rect height="3.175" width="0.508" x="47.879" y="1.016"/><rect height="1.27" width="0.508" x="48.895" y="2.921"/><rect height="3.175" width="0.508" x="49.911" y="1.016"/><rect height="1.27" width="0.508" x="50.927" y="2.921"/><rect height="3.175" width="0.508" x="51.943" y="1.016"/><rect height="1.27" width="0.508" x="52.959" y="2.921"/><rect height="1.27" width="0.508" x="53.975" y="2.921"/><rect height="3.175" width="0.508" x="54.991" y="1.016"/></g></svg>