<?xml version="1.0" encoding="UTF-8"?><svg height="4.9389mm" viewBox="0 0 4.9389 4.9389" width="4.9389mm" xmlns="http://www.w3.org/2000/svg"><g fill="black" stroke="none"><rect height="0.3528" width="0.3528" x="0.3528" y="0.3528"/><rect height="0.3528" width="0.3528" x="1.0583" y="0.3528"/><rect height="0.3528" width="0.3528" x="1.7639" y="0.3528"/><rect height="0.3528" width="0.3528" x="2.4694" y="0.3528"/><rect height="0.3528" width="0.3528" x="3.175" y="0.3528"/><rect height="0.3528" width="0.3528" x="3.8806" y="0.3528"/><rect height="0.3528" width="0.3528" x="0.3528" y="0.7056"/><rect height="0.3528" width="0.3528" x="0.7056" y="0.7056"/><rect height="0.3528" width="0.3528" x="1.4111" y="0.7056"/><rect height="0.3528" width="0.3528" x="1.7639" y="0.7056"/><rect height="0.3528" width="0.3528" x="2.1167" y="0.7056"/><rect height="0.3528" width="0.3528" x="3.5278" y="0.7056"/><rect height="0.3528" width="0.3528" x="4.2333" y="0.7056"/><rect height="0.3528" width="0.3528" x="0.3528" y="1.0583"/><rect height="0.3528" width="0.3528" x="1.0583" y="1.0583"/><rect height="0.3528" width="0.3528" x="1.4111" y="1.0583"/><rect height="0.3528" width="0.3528" x="1.7639" y="1.0583"/><rect height="0.3528" width="0.3528" x="2.1167" y="1.0583"/><rect height="0.3528" width="0.3528" x="2.4694" y="1.0583"/><rect height="0.3528" width="0.3528" x="3.175" y="1.0583"/><rect height="0.3528" width="0.3528" x="0.3528" y="1.4111"/><rect height="0.3528" width="0.3528" x="1.4111" y="1.4111"/><rect height="0.3528" width="0.3528" x="2.1167" y="1.4111"/><rect height="0.3528" width="0.3528" x="2.4694" y="1.4111"/><rect height="0.3528" width="0.3528" x="3.175" y="1.4111"/><rect height="0.3528" width="0.3528" x="3.8806" y="1.4111"/><rect height="0.3528" width="0.3528" x="4.2333" y="1.4111"/><rect height="0.3528" width="0.3528" x="0.3528" y="1.7639"/><rect height="0.3528" width="0.3528" x="1.0583" y="1.7639"/><rect height="0.3528" width="0.3528" x="1.4111" y="1.7639"/><rect height="0.3528" width="0.3528" x="2.1167" y="1.7639"/><rect height="0.3528" width="0.3528" x="2.4694" y="1.7639"/><rect height="0.3528" width="0.3528" x="2.8222" y="1.7639"/><rect height="0.3528" width="0.3528" x="3.175" y="1.7639"/><rect height="0.3528" width="0.3528" x="3.5278" y="1.7639"/><rect height="0.3528" width="0.3528" x="3.8806" y="1.7639"/><rect height="0.3528" width="0.3528" x="0.3528" y="2.1167"/><rect height="0.3528" width="0.3528" x="0.7056" y="2.1167"/><rect height="0.3528" width="0.3528" x="1.7639" y="2.1167"/><rect height="0.3528" width="0.3528" x="2.1167" y="2.1167"/><rect height="0.3528" width="0.3528" x="3.175" y="2.1167"/><rect height="0.3528" width="0.3528" x="3.5278" y="2.1167"/><rect height="0.3528" width="0.3528" x="4.2333" y="2.1167"/><rect height="0.3528" width="0.3528" x="0.3528" y="2.4694"/><rect height="0.3528" width="0.3528" x="1.7639" y="2.4694"/><rect height="0.3528" width="0.3528" x="3.8806" y="2.4694"/><rect height="0.3528" width="0.3528" x="0.3528" y="2.8222"/><rect height="0.3528" width="0.3528" x="1.0583" y="2.8222"/><rect height="0.3528" width="0.3528" x="1.4111" y="2.8222"/><rect height="0.3528" width="0.3528" x="2.8222" y="2.8222"/><rect height="0.3528" width="0.3528" x="4.2333" y="2.8222"/><rect height="0.3528" width="0.3528" x="0.3528" y="3.175"/><rect height="0.3528" width="0.3528" x="0.7056" y="3.175"/><rect height="0.3528" width="0.3528" x="1.4111" y="3.175"/><rect height="0.3528" width="0.3528" x="2.1167" y="3.175"/><rect height="0.3528" width="0.3528" x="2.4694" y="3.175"/><rect height="0.3528" width="0.3528" x="2.8222" y="3.175"/><rect height="0.3528" width="0.3528" x="3.175" y="3.175"/><rect height="0.3528" width="0.3528" x="3.5278" y="3.175"/><rect height="0.3528" width="0.3528" x="0.3528" y="3.5278"/><rect height="0.3528" width="0.3528" x="0.7056" y="3.5278"/><rect height="0.3528" width="0.3528" x="1.4111" y="3.5278"/><rect height="0.3528" width="0.3528" x="2.1167" y="3.5278"/><rect height="0.3528" width="0.3528" x="2.4694" y="3.5278"/><rect height="0.3528" width="0.3528" x="3.175" y="3.5278"/><rect height="0.3528" width="0.3528" x="3.5278" y="3.5278"/><rect height="0.3528" width="0.3528" x="4.2333" y="3.5278"/><rect height="0.3528" width="0.3528" x="0.3528" y="3.8806"/><rect height="0.3528" width="0.3528" x="0.7056" y="3.8806"/><rect height="0.3528" width="0.3528" x="1.4111" y="3.8806"/><rect height="0.3528" width="0.3528" x="1.7639" y="3.8806"/><rect height="0.3528" width="0.3528" x="2.1167" y="3.8806"/><rect height="0.3528" width="0.3528" x="2.8222" y="3.8806"/><rect height="0.3528" width="0.3528" x="3.8806" y="3.8806"/><rect height="0.3528" width="0.3528" x="0.3528" y="4.2333"/><rect height="0.3528" width="0.3528" x="0.7056" y="4.2333"/><rect height="0.3528" width="0.3528" x="1.0583" y="4.2333"/><rect height="0.3528" width="0.3528" x="1.4111" y="4.2333"/><rect height="0.3528" width="0.3528" x="1.7639" y="4.2333"/><rect height="0.3528" width="0.3528" x="2.1167" y="4.2333"/><rect height="0.3528" width="0.3528" x="2.4694" y="4.2333"/><rect height="0.3528" width="0.3528" x="2.8222" y="4.2333"/><rect height="0.3528" width="0.3528" x="3.175" y="4.2333"/><rect height="0.3528" width="0.3528" x="3.5278" y="4.2333"/><rect height="0.3528" width="0.3528" x="3.8806" y="4.2333"/><rect height="0.3528" width="0.3528" x="4.2333" y="4.2333"/></g></svg>