<?xml version="1.0" encoding="UTF-8"?><svg height="17.8219mm" viewBox="0 0 28.71 17.8219" width="28.71mm" xmlns="http://www.w3.org/2000/svg"><g fill="black" stroke="none"><rect height="16.4109" width="0.33" x="3.3" y="0"/><rect height="16.4109" width="0.33" x="3.96" y="0"/><rect height="15" width="0.33" x="4.95" y="0"/><rect height="15" width="0.66" x="5.94" y="0"/><rect height="15" width="0.66" x="7.59" y="0"/><rect height="15" width="0.33" x="8.58" y="0"/><rect height="15" width="0.66" x="9.57" y="0"/><rect height="15" width="0.33" x="10.89" y="0"/><rect height="15" width="0.33" x="11.88" y="0"/><rect height="15" width="0.66" x="12.87" y="0"/><text font-family="Helvetica" font-size="2.8219" text-anchor="middle" textLength="8.58" x="8.91" y="17.6228">2012</text><rect height="16.4109" width="0.33" x="13.86" y="0"/><rect height="16.4109" width="0.33" x="14.52" y="0"/><rect height="15" width="0.33" x="15.18" y="0"/><rect height="15" width="0.33" x="16.83" y="0"/><rect height="15" width="0.33" x="17.49" y="0"/><rect height="15" width="0.99" x="18.15" y="0"/><rect height="15" width="0.33" x="19.8" y="0"/><rect height="15" width="0.99" x="20.79" y="0"/><rect height="15" width="0.66" x="22.11" y="0"/><rect height="15" width="0.66" x="23.43" y="0"/><text font-family="Helvetica" font-size="2.8219" text-anchor="middle" textLength="8.58" x="19.8" y="17.6228">3451</text><rect height="16.4109" width="0.33" x="24.42" y="0"/><rect height="16.4109" width="0.33" x="25.08" y="0"/></g></svg>