<?xml version="1.0" encoding="UTF-8"?><svg height="18.6684mm" viewBox="0 0 23.1 18.6684" width="23.1mm" xmlns="http://www.w3.org/2000/svg"><g fill="black" stroke="none"><rect height="15" width="0.42" x="2.1" y="0"/><rect height="15" width="0.21" x="2.73" y="0"/><rect height="15" width="0.63" x="3.36" y="0"/><rect height="15" width="0.42" x="4.41" y="0"/><rect height="15" width="0.42" x="5.25" y="0"/><rect height="15" width="0.42" x="5.88" y="0"/><rect height="15" width="0.63" x="6.72" y="0"/><rect height="15" width="0.42" x="7.56" y="0"/><rect height="15" width="0.63" x="8.19" y="0"/><rect height="15" width="0.21" x="9.03" y="0"/><rect height="15" width="0.63" x="9.45" y="0"/><rect height="15" width="0.42" x="10.29" y="0"/><rect height="15" width="0.21" x="11.34" y="0"/><rect height="15" width="0.21" x="12.39" y="0"/><rect height="15" width="0.42" x="12.81" y="0"/><rect height="15" width="0.42" x="13.65" y="0"/><rect height="15" width="0.42" x="14.28" y="0"/><rect height="15" width="0.84" x="14.91" y="0"/><rect height="15" width="0.21" x="15.96" y="0"/><rect height="15" width="0.42" x="17.01" y="0"/><rect height="15" width="0.21" x="17.64" y="0"/><rect height="15" width="0.42" x="18.27" y="0"/><rect height="15" width="0.63" x="19.32" y="0"/><rect height="15" width="0.21" x="20.16" y="0"/><rect height="15" width="0.42" x="20.58" y="0"/><text font-family="Helvetica" font-size="2.8219" text-anchor="middle" x="11.55" y="17.6228">0123456789</text></g></svg>