<?xml version="1.0" encoding="UTF-8"?><svg height="23.43mm" viewBox="0 0 17.8219 23.43" width="17.8219mm" xmlns="http://www.w3.org/2000/svg"><g fill="black" stroke="none" transform="rotate(-90) translate(-23.43)"><rect height="16.4109" width="0.33" x="3.3" y="0"/><rect height="16.4109" width="0.33" x="3.96" y="0"/><text font-family="Helvetica" font-size="2.8219" text-anchor="middle" x="1.155" y="17.6228">0</text><rect height="15" width="0.66" x="4.62" y="0"/><rect height="15" width="0.66" x="5.94" y="0"/><rect height="15" width="0.66" x="7.26" y="0"/><rect height="15" width="0.66" x="8.25" y="0"/><rect height="15" width="1.32" x="9.24" y="0"/><rect height="15" width="0.33" x="10.89" y="0"/><rect height="15" width="0.33" x="11.55" y="0"/><rect height="15" width="0.66" x="12.87" y="0"/><rect height="15" width="0.66" x="14.19" y="0"/><rect height="15" width="0.33" x="15.51" y="0"/><rect height="15" width="0.33" x="16.17" y="0"/><rect height="15" width="0.33" x="17.82" y="0"/><text font-family="Helvetica" font-size="2.8219" text-anchor="middle" textLength="13.2" x="11.22" y="17.6228">123413</text><text font-family="Helvetica" font-size="2.8219" text-anchor="middle" x="22.275" y="17.6228">3</text><rect height="16.4109" width="0.33" x="18.48" y="0"/><rect height="16.4109" width="0.33" x="19.14" y="0"/><rect height="16.4109" width="0.33" x="19.8" y="0"/></g></svg>