<?xml version="1.0" encoding="UTF-8"?><svg height="6.7028mm" viewBox="0 0 37.7472 6.7028" width="37.7472mm" xmlns="http://www.w3.org/2000/svg"><g fill="black" stroke="none"><rect height="1.0583" width="2.8222" x="0.7056" y="0.7056"/><rect height="1.0583" width="0.3528" x="3.8806" y="0.7056"/><rect height="1.0583" width="0.3528" x="4.5861" y="0.7056"/><rect height="1.0583" width="0.3528" x="5.2917" y="0.7056"/><rect height="1.0583" width="1.4111" x="6.7028" y="0.7056"/><rect height="1.0583" width="0.3528" x="8.4667" y="0.7056"/><rect height="1.0583" width="0.3528" x="9.1722" y="0.7056"/><rect height="1.0583" width="1.4111" x="9.8778" y="0.7056"/><rect height="1.0583" width="0.7056" x="12.7" y="0.7056"/><rect height="1.0583" width="0.3528" x="13.7583" y="0.7056"/><rect height="1.0583" width="0.3528" x="14.4639" y="0.7056"/><rect height="1.0583" width="0.7056" x="16.2278" y="0.7056"/><rect height="1.0583" width="0.3528" x="18.6972" y="0.7056"/><rect height="1.0583" width="0.7056" x="20.4611" y="0.7056"/><rect height="1.0583" width="1.0583" x="21.5194" y="0.7056"/><rect height="1.0583" width="0.7056" x="23.2833" y="0.7056"/><rect height="1.0583" width="1.4111" x="24.6944" y="0.7056"/><rect height="1.0583" width="0.3528" x="26.4583" y="0.7056"/><rect height="1.0583" width="0.3528" x="27.1639" y="0.7056"/><rect height="1.0583" width="1.4111" x="27.8694" y="0.7056"/><rect height="1.0583" width="2.4694" x="30.6917" y="0.7056"/><rect height="1.0583" width="0.3528" x="33.5139" y="0.7056"/><rect height="1.0583" width="0.3528" x="34.925" y="0.7056"/><rect height="1.0583" width="0.3528" x="35.6306" y="0.7056"/><rect height="1.0583" width="0.3528" x="36.6889" y="0.7056"/><rect height="1.0583" width="2.8222" x="0.7056" y="1.7639"/><rect height="1.0583" width="0.3528" x="3.8806" y="1.7639"/><rect height="1.0583" width="0.3528" x="4.5861" y="1.7639"/><rect height="1.0583" width="0.3528" x="5.2917" y="1.7639"/><rect height="1.0583" width="2.1167" x="6.7028" y="1.7639"/><rect height="1.0583" width="0.3528" x="9.1722" y="1.7639"/><rect height="1.0583" width="0.3528" x="9.8778" y="1.7639"/><rect height="1.0583" width="1.0583" x="10.5833" y="1.7639"/><rect height="1.0583" width="1.4111" x="12.7" y="1.7639"/><rect height="1.0583" width="0.3528" x="14.4639" y="1.7639"/><rect height="1.0583" width="1.0583" x="15.1694" y="1.7639"/><rect height="1.0583" width="1.0583" x="16.9333" y="1.7639"/><rect height="1.0583" width="1.0583" x="18.6972" y="1.7639"/><rect height="1.0583" width="0.3528" x="20.1083" y="1.7639"/><rect height="1.0583" width="1.0583" x="21.1667" y="1.7639"/><rect height="1.0583" width="0.7056" x="22.9306" y="1.7639"/><rect height="1.0583" width="2.1167" x="24.6944" y="1.7639"/><rect height="1.0583" width="0.3528" x="27.1639" y="1.7639"/><rect height="1.0583" width="0.3528" x="27.8694" y="1.7639"/><rect height="1.0583" width="1.0583" x="28.575" y="1.7639"/><rect height="1.0583" width="2.4694" x="30.6917" y="1.7639"/><rect height="1.0583" width="0.3528" x="33.5139" y="1.7639"/><rect height="1.0583" width="0.3528" x="34.925" y="1.7639"/><rect height="1.0583" width="0.3528" x="35.6306" y="1.7639"/><rect height="1.0583" width="0.3528" x="36.6889" y="1.7639"/><rect height="1.0583" width="2.8222" x="0.7056" y="2.8222"/><rect height="1.0583" width="0.3528" x="3.8806" y="2.8222"/><rect height="1.0583" width="0.3528" x="4.5861" y="2.8222"/><rect height="1.0583" width="0.3528" x="5.2917" y="2.8222"/><rect height="1.0583" width="1.0583" x="6.7028" y="2.8222"/><rect height="1.0583" width="0.3528" x="8.1139" y="2.8222"/><rect height="1.0583" width="0.3528" x="8.8194" y="2.8222"/><rect height="1.0583" width="2.1167" x="9.525" y="2.8222"/><rect height="1.0583" width="1.7639" x="12.7" y="2.8222"/><rect height="1.0583" width="0.3528" x="15.1694" y="2.8222"/><rect height="1.0583" width="1.4111" x="15.875" y="2.8222"/><rect height="1.0583" width="0.7056" x="17.6389" y="2.8222"/><rect height="1.0583" width="1.0583" x="18.6972" y="2.8222"/><rect height="1.0583" width="0.3528" x="20.4611" y="2.8222"/><rect height="1.0583" width="1.7639" x="21.5194" y="2.8222"/><rect height="1.0583" width="0.3528" x="23.9889" y="2.8222"/><rect height="1.0583" width="1.0583" x="24.6944" y="2.8222"/><rect height="1.0583" width="0.3528" x="26.1056" y="2.8222"/><rect height="1.0583" width="0.3528" x="26.8111" y="2.8222"/><rect height="1.0583" width="2.1167" x="27.5167" y="2.8222"/><rect height="1.0583" width="2.4694" x="30.6917" y="2.8222"/><rect height="1.0583" width="0.3528" x="33.5139" y="2.8222"/><rect height="1.0583" width="0.3528" x="34.925" y="2.8222"/><rect height="1.0583" width="0.3528" x="35.6306" y="2.8222"/><rect height="1.0583" width="0.3528" x="36.6889" y="2.8222"/><rect height="1.0583" width="2.8222" x="0.7056" y="3.8806"/><rect height="1.0583" width="0.3528" x="3.8806" y="3.8806"/><rect height="1.0583" width="0.3528" x="4.5861" y="3.8806"/><rect height="1.0583" width="0.3528" x="5.2917" y="3.8806"/><rect height="1.0583" width="0.3528" x="6.7028" y="3.8806"/><rect height="1.0583" width="0.3528" x="7.4083" y="3.8806"/><rect height="1.0583" width="1.4111" x="8.1139" y="3.8806"/><rect height="1.0583" width="1.4111" x="10.2306" y="3.8806"/><rect height="1.0583" width="0.7056" x="12.7" y="3.8806"/><rect height="1.0583" width="0.3528" x="14.1111" y="3.8806"/><rect height="1.0583" width="0.3528" x="15.875" y="3.8806"/><rect height="1.0583" width="0.7056" x="16.9333" y="3.8806"/><rect height="1.0583" width="0.3528" x="18.6972" y="3.8806"/><rect height="1.0583" width="0.7056" x="20.4611" y="3.8806"/><rect height="1.0583" width="0.7056" x="22.225" y="3.8806"/><rect height="1.0583" width="0.3528" x="23.6361" y="3.8806"/><rect height="1.0583" width="0.3528" x="24.6944" y="3.8806"/><rect height="1.0583" width="0.3528" x="25.4" y="3.8806"/><rect height="1.0583" width="1.4111" x="26.1056" y="3.8806"/><rect height="1.0583" width="1.4111" x="28.2222" y="3.8806"/><rect height="1.0583" width="2.4694" x="30.6917" y="3.8806"/><rect height="1.0583" width="0.3528" x="33.5139" y="3.8806"/><rect height="1.0583" width="0.3528" x="34.925" y="3.8806"/><rect height="1.0583" width="0.3528" x="35.6306" y="3.8806"/><rect height="1.0583" width="0.3528" x="36.6889" y="3.8806"/><rect height="1.0583" width="2.8222" x="0.7056" y="4.9389"/><rect height="1.0583" width="0.3528" x="3.8806" y="4.9389"/><rect height="1.0583" width="0.3528" x="4.5861" y="4.9389"/><rect height="1.0583" width="0.3528" x="5.2917" y="4.9389"/><rect height="1.0583" width="1.0583" x="6.7028" y="4.9389"/><rect height="1.0583" width="0.3528" x="8.1139" y="4.9389"/><rect height="1.0583" width="1.0583" x="8.8194" y="4.9389"/><rect height="1.0583" width="0.7056" x="10.5833" y="4.9389"/><rect height="1.0583" width="0.3528" x="12.7" y="4.9389"/><rect height="1.0583" width="1.7639" x="13.4056" y="4.9389"/><rect height="1.0583" width="0.3528" x="16.2278" y="4.9389"/><rect height="1.0583" width="1.0583" x="17.2861" y="4.9389"/><rect height="1.0583" width="0.7056" x="18.6972" y="4.9389"/><rect height="1.0583" width="0.3528" x="21.1667" y="4.9389"/><rect height="1.0583" width="1.0583" x="22.5778" y="4.9389"/><rect height="1.0583" width="0.3528" x="23.9889" y="4.9389"/><rect height="1.0583" width="1.0583" x="24.6944" y="4.9389"/><rect height="1.0583" width="0.3528" x="26.1056" y="4.9389"/><rect height="1.0583" width="1.0583" x="26.8111" y="4.9389"/><rect height="1.0583" width="0.7056" x="28.575" y="4.9389"/><rect height="1.0583" width="2.4694" x="30.6917" y="4.9389"/><rect height="1.0583" width="0.3528" x="33.5139" y="4.9389"/><rect height="1.0583" width="0.3528" x="34.925" y="4.9389"/><rect height="1.0583" width="0.3528" x="35.6306" y="4.9389"/><rect height="1.0583" width="0.3528" x="36.6889" y="4.9389"/></g></svg>